<?xml version="1.0" encoding="utf-8"?>
<!-- Generator: Adobe Illustrator 18.0.0, SVG Export Plug-In . SVG Version: 6.00 Build 0)  -->
<!DOCTYPE svg PUBLIC "-//W3C//DTD SVG 1.1//EN" "http://www.w3.org/Graphics/SVG/1.1/DTD/svg11.dtd">
<svg version="1.1" id="Layer_1" xmlns="http://www.w3.org/2000/svg" xmlns:xlink="http://www.w3.org/1999/xlink" x="0px" y="0px"
	 viewBox="0 0 325 75" enable-background="new 0 0 325 75" xml:space="preserve">
<g>
	<g>
		<path fill="#4D4D4D" d="M99.6,45.6c1,0,1.8-0.1,2.5-0.3c0.7-0.2,1.2-0.4,1.6-0.7c0.4-0.3,0.7-0.6,0.8-1c0.2-0.4,0.2-0.8,0.2-1.3
			c0-1-0.5-1.9-1.5-2.6c-1-0.7-2.7-1.4-5.1-2.2c-1-0.4-2.1-0.8-3.1-1.3c-1-0.5-2-1.1-2.8-1.8c-0.8-0.7-1.5-1.6-2-2.6
			c-0.5-1-0.8-2.3-0.8-3.7c0-1.5,0.3-2.8,0.8-4c0.6-1.2,1.3-2.2,2.3-3c1-0.8,2.2-1.5,3.7-1.9c1.4-0.4,3.1-0.7,4.9-0.7
			c2.1,0,4,0.2,5.6,0.7c1.6,0.5,2.8,1,3.9,1.5l-2.1,5.7c-0.9-0.5-1.9-0.9-3-1.2c-1.1-0.4-2.4-0.5-3.9-0.5c-1.7,0-3,0.2-3.7,0.7
			c-0.8,0.5-1.1,1.2-1.1,2.2c0,0.6,0.1,1.1,0.4,1.5c0.3,0.4,0.7,0.8,1.2,1.1c0.5,0.3,1.1,0.6,1.7,0.9c0.7,0.3,1.4,0.5,2.2,0.8
			c1.7,0.6,3.1,1.2,4.3,1.8c1.2,0.6,2.2,1.3,3.1,2.1c0.8,0.8,1.4,1.7,1.8,2.8c0.4,1.1,0.6,2.4,0.6,3.9c0,3-1,5.3-3.1,6.9
			c-2.1,1.6-5.2,2.5-9.4,2.5c-1.4,0-2.7-0.1-3.8-0.3c-1.1-0.2-2.1-0.4-3-0.6c-0.9-0.2-1.6-0.5-2.3-0.8c-0.6-0.3-1.2-0.5-1.6-0.8
			l2-5.7c1,0.5,2.1,1,3.5,1.4C95.9,45.4,97.6,45.6,99.6,45.6z"/>
		<path fill="#4D4D4D" d="M123.1,20c0,1.3-0.4,2.2-1.2,3c-0.8,0.7-1.8,1.1-2.9,1.1c-1.1,0-2.1-0.4-2.9-1.1c-0.8-0.7-1.2-1.7-1.2-3
			c0-1.3,0.4-2.2,1.2-3c0.8-0.7,1.8-1.1,2.9-1.1c1.1,0,2.1,0.4,2.9,1.1C122.7,17.8,123.1,18.8,123.1,20z M122.4,51.2h-6.8V27h6.8
			V51.2z"/>
		<path fill="#4D4D4D" d="M139.2,38.4c0-2.2-0.3-3.8-0.9-4.7c-0.6-0.9-1.5-1.4-2.9-1.4c-0.4,0-0.9,0-1.3,0.1c-0.5,0-0.9,0.1-1.3,0.2
			v18.7h-6.8V27.9c0.6-0.2,1.3-0.3,2-0.5c0.8-0.2,1.6-0.3,2.5-0.5c0.9-0.1,1.8-0.2,2.7-0.3c0.9-0.1,1.8-0.1,2.7-0.1
			c1.7,0,3.2,0.2,4.3,0.7c1.1,0.4,2,1,2.7,1.6c1-0.7,2.1-1.3,3.4-1.7c1.3-0.4,2.4-0.6,3.5-0.6c1.9,0,3.5,0.3,4.8,0.8
			c1.2,0.5,2.2,1.3,3,2.3c0.7,1,1.2,2.1,1.5,3.5c0.3,1.4,0.4,2.9,0.4,4.5v13.7h-6.9V38.4c0-2.2-0.3-3.8-0.8-4.7
			c-0.6-0.9-1.5-1.4-2.9-1.4c-0.4,0-0.9,0.1-1.5,0.3c-0.7,0.2-1.2,0.4-1.6,0.7c0.2,0.7,0.4,1.4,0.4,2.2c0.1,0.8,0.1,1.6,0.1,2.5
			v13.2h-6.8V38.4z"/>
		<path fill="#4D4D4D" d="M185.3,39c0,1.9-0.2,3.6-0.7,5.1c-0.5,1.5-1.1,2.9-2,4c-0.9,1.1-2,2-3.3,2.6c-1.3,0.6-2.8,0.9-4.6,0.9
			c-1,0-1.8-0.1-2.7-0.3c-0.8-0.2-1.6-0.4-2.4-0.8v9.1h-6.9V27.7c0.6-0.2,1.3-0.4,2.1-0.5c0.8-0.2,1.6-0.3,2.5-0.4
			c0.9-0.1,1.8-0.2,2.7-0.3c0.9-0.1,1.8-0.1,2.6-0.1c2,0,3.8,0.3,5.3,0.9c1.6,0.6,2.9,1.4,4,2.5c1.1,1.1,1.9,2.4,2.5,4
			C185,35.3,185.3,37.1,185.3,39z M178.3,39.2c0-2.1-0.5-3.8-1.4-5.1c-1-1.3-2.4-1.9-4.2-1.9c-0.6,0-1.2,0-1.7,0.1
			c-0.5,0-0.9,0.1-1.3,0.2v12.4c0.4,0.3,1,0.5,1.7,0.7c0.7,0.2,1.4,0.3,2.1,0.3C176.7,45.8,178.3,43.6,178.3,39.2z"/>
		<path fill="#4D4D4D" d="M198.5,51.5c-2,0-3.6-0.2-4.8-0.6c-1.2-0.4-2.2-1-2.9-1.7c-0.7-0.7-1.2-1.6-1.5-2.6
			c-0.3-1-0.4-2.2-0.4-3.5V16.5l6.8-1.1v26.3c0,0.6,0,1.2,0.1,1.7c0.1,0.5,0.3,0.9,0.5,1.2c0.3,0.3,0.6,0.6,1.1,0.8
			c0.5,0.2,1.1,0.4,2,0.4L198.5,51.5z"/>
		<path fill="#4D4D4D" d="M210.7,20c0,1.3-0.4,2.2-1.2,3c-0.8,0.7-1.8,1.1-2.9,1.1c-1.1,0-2.1-0.4-2.9-1.1c-0.8-0.7-1.2-1.7-1.2-3
			c0-1.3,0.4-2.2,1.2-3c0.8-0.7,1.8-1.1,2.9-1.1c1.1,0,2.1,0.4,2.9,1.1C210.3,17.8,210.7,18.8,210.7,20z M210,51.2h-6.9V27h6.9V51.2
			z"/>
		<path fill="#4D4D4D" d="M235.1,28.9c0,2.4-0.6,4.3-1.9,5.7s-2.9,2.4-5,3c0.5,0.6,1.1,1.4,1.9,2.5c0.8,1,1.6,2.2,2.4,3.4
			c0.8,1.2,1.6,2.5,2.4,3.9c0.8,1.4,1.5,2.6,2,3.9h-3.4c-0.6-1.2-1.3-2.5-2.1-3.7c-0.8-1.2-1.5-2.4-2.3-3.6
			c-0.8-1.1-1.5-2.2-2.3-3.2c-0.7-1-1.4-1.8-1.9-2.6c-1,0.1-2,0.1-2.9,0.1h-5.1v12.9h-3.1V20c1.1-0.3,2.4-0.5,3.9-0.7
			c1.5-0.1,2.9-0.2,4.1-0.2c4.4,0,7.7,0.8,9.9,2.5C233.9,23.2,235.1,25.7,235.1,28.9z M222.2,21.8c-1.2,0-2.2,0-3.1,0.1
			c-0.9,0.1-1.6,0.1-2.2,0.2v13.6h4.3c1.4,0,2.8-0.1,4.1-0.2c1.3-0.1,2.4-0.4,3.4-0.9c0.9-0.5,1.7-1.2,2.3-2
			c0.6-0.9,0.8-2.1,0.8-3.6c0-1.4-0.3-2.6-0.8-3.5c-0.6-0.9-1.3-1.6-2.2-2.2c-0.9-0.5-1.9-0.9-3.1-1.1
			C224.6,21.9,223.4,21.8,222.2,21.8z"/>
		<path fill="#4D4D4D" d="M262,39.2c0,1.9-0.3,3.6-0.8,5.1c-0.5,1.5-1.3,2.8-2.3,3.9c-1,1.1-2.1,1.9-3.4,2.5
			c-1.3,0.6-2.8,0.9-4.4,0.9c-1.6,0-3-0.3-4.4-0.9c-1.3-0.6-2.5-1.4-3.4-2.5c-1-1.1-1.7-2.4-2.3-3.9c-0.5-1.5-0.8-3.2-0.8-5.1
			c0-1.9,0.3-3.6,0.8-5.1c0.5-1.5,1.3-2.8,2.3-3.9c1-1.1,2.1-1.9,3.4-2.5c1.3-0.6,2.8-0.9,4.4-0.9c1.6,0,3.1,0.3,4.4,0.9
			c1.3,0.6,2.5,1.4,3.4,2.5c1,1.1,1.7,2.4,2.3,3.9C261.8,35.7,262,37.4,262,39.2z M258.9,39.2c0-3-0.7-5.3-2.1-7.1
			c-1.4-1.8-3.2-2.6-5.6-2.6c-2.4,0-4.2,0.9-5.6,2.6c-1.4,1.8-2.1,4.1-2.1,7.1c0,3,0.7,5.3,2.1,7.1c1.4,1.7,3.2,2.6,5.6,2.6
			c2.4,0,4.2-0.9,5.6-2.6C258.2,44.6,258.9,42.2,258.9,39.2z"/>
		<path fill="#4D4D4D" d="M284.3,50.3c-0.9,0.2-2.1,0.5-3.6,0.8c-1.5,0.3-3.3,0.5-5.5,0.5c-1.8,0-3.3-0.3-4.5-0.8
			c-1.2-0.5-2.2-1.3-2.9-2.2c-0.7-0.9-1.3-2.1-1.6-3.4c-0.3-1.3-0.5-2.8-0.5-4.5V27.3h3v12.4c0,1.7,0.1,3.1,0.4,4.3
			c0.2,1.2,0.6,2.1,1.2,2.8c0.6,0.7,1.3,1.2,2.1,1.6c0.9,0.3,1.9,0.5,3.2,0.5c1.4,0,2.6-0.1,3.7-0.2c1-0.2,1.7-0.3,2-0.4V27.3h3
			V50.3z"/>
		<path fill="#4D4D4D" d="M290.7,27.3h9.5v2.5h-9.5v12.6c0,1.3,0.1,2.4,0.3,3.3c0.2,0.8,0.6,1.5,1,2c0.4,0.5,1,0.8,1.6,0.9
			c0.6,0.2,1.3,0.2,2,0.2c1.3,0,2.3-0.1,3-0.4c0.8-0.3,1.4-0.6,1.8-0.8l0.7,2.5c-0.4,0.3-1.2,0.6-2.3,0.9c-1.1,0.4-2.2,0.5-3.5,0.5
			c-1.5,0-2.7-0.2-3.7-0.6c-1-0.4-1.8-1-2.4-1.7c-0.6-0.8-1-1.8-1.3-2.9c-0.2-1.2-0.4-2.5-0.4-4.1V20.3l3-0.6V27.3z"/>
		<path fill="#4D4D4D" d="M304.5,39.2c0-2.1,0.3-3.9,0.9-5.4c0.6-1.5,1.4-2.8,2.3-3.9c1-1,2.1-1.8,3.3-2.3c1.2-0.5,2.5-0.8,3.8-0.8
			c2.9,0,5.2,1,7,2.9c1.7,1.9,2.6,4.8,2.6,8.8c0,0.2,0,0.5,0,0.7c0,0.2,0,0.5-0.1,0.7h-16.7c0.1,2.9,0.8,5.1,2.2,6.7
			c1.3,1.6,3.5,2.3,6.4,2.3c1.6,0,2.9-0.2,3.9-0.5c0.9-0.3,1.6-0.6,2.1-0.8l0.6,2.6c-0.4,0.2-1.2,0.5-2.4,0.9
			c-1.2,0.3-2.6,0.5-4.2,0.5c-2.1,0-3.9-0.3-5.3-0.9c-1.5-0.6-2.7-1.5-3.6-2.6c-0.9-1.1-1.6-2.4-2.1-3.9
			C304.8,42.6,304.5,41,304.5,39.2z M321.4,37.3c-0.1-2.5-0.6-4.4-1.7-5.8c-1.1-1.4-2.7-2.1-4.7-2.1c-1.1,0-2,0.2-2.9,0.6
			c-0.8,0.4-1.6,1-2.2,1.7c-0.6,0.7-1.1,1.6-1.5,2.5c-0.4,1-0.6,1.9-0.6,3H321.4z"/>
	</g>
	<g>
		<g>
			<g>
				<path fill="#CB2026" d="M44.7,2.7c0,3-1.9,5.5-4.7,6.5v20.3c1,0.3,2,0.8,2.9,1.5l13.3-11.5c-0.2-0.7-0.3-1.4-0.3-2.1
					c0-3.5,2.2-6.5,5.3-7.4c-4.6-4.1-10.3-7.1-16.6-8.4c0.1,0.3,0.1,0.6,0.1,1L44.7,2.7z"/>
			</g>
		</g>
		<g>
			<g>
				<path fill="#CB2026" d="M63.3,25.1c-1.5,0-2.8-0.5-4-1.2L46.2,35.3c0.4,1,0.6,2.1,0.7,3.3l0,0.3c0,1.6-0.4,3.1-1,4.4l10,12.3
					c0.7-0.2,1.5-0.4,2.3-0.4c3.2,0,6,2,7.2,4.9c5.1-6.3,8.2-14.3,8.2-23c0-5.7-1.3-11.1-3.7-15.9C68.5,23.5,66.1,25.1,63.3,25.1z"
					/>
			</g>
		</g>
		<g>
			<g>
				<path fill="#CB2026" d="M50.3,63.1c0-1.8,0.6-3.4,1.5-4.7l-9.3-11.5c-1.6,1.1-3.5,1.7-5.5,1.7c-1.5,0-2.9-0.3-4.1-0.9L22.3,58.4
					c0.3,0.8,0.6,1.7,0.6,2.7l0,0.2c0,3.2-2,6-4.9,7.1c0.1,0,0.1,0.1,0.2,0.1c0.2,0.1,0.4,0.2,0.6,0.3c0,0,0,0,0.1,0
					c5.3,3.1,11.5,4.8,18.1,4.8c6,0,11.6-1.4,16.6-4C51.6,68.2,50.3,65.8,50.3,63.1z"/>
			</g>
		</g>
		<g>
			<g>
				<path fill="#CB2026" d="M15.3,53.7c1,0,2,0.2,2.9,0.6l10.4-10.5c-0.8-1.4-1.3-3.1-1.3-4.9c0-4.6,3.1-8.4,7.3-9.5V9.3
					c-2.7-1-4.7-3.6-4.7-6.5c0-0.6,0.1-1,0.2-1.4C13.3,4.6,0.5,19.3,0.5,37.1c0,8.3,2.8,16,7.5,22.2C8.9,56.1,11.8,53.7,15.3,53.7z
					 M15.8,25.5c2.5,0,4.6,2.1,4.7,4.7l0,0.1c0,2.7-2.1,4.8-4.7,4.8c-2.6,0-4.7-2.1-4.7-4.8C11.1,27.6,13.2,25.5,15.8,25.5z"/>
			</g>
		</g>
	</g>
</g>
</svg>
