<?xml version="1.0" encoding="utf-8"?>
<!-- Generator: Adobe Illustrator 18.0.0, SVG Export Plug-In . SVG Version: 6.00 Build 0)  -->
<!DOCTYPE svg PUBLIC "-//W3C//DTD SVG 1.1//EN" "http://www.w3.org/Graphics/SVG/1.1/DTD/svg11.dtd">
<svg version="1.1" id="Layer_1" xmlns="http://www.w3.org/2000/svg" xmlns:xlink="http://www.w3.org/1999/xlink" x="0px" y="0px"
	 viewBox="0 0 800 437" enable-background="new 0 0 800 437" xml:space="preserve">
<linearGradient id="SVGID_1_" gradientUnits="userSpaceOnUse" x1="366.4277" y1="41.5855" x2="431.8689" y2="386.4384">
	<stop  offset="0" style="stop-color:#596BA5"/>
	<stop  offset="0.5894" style="stop-color:#9870B1;stop-opacity:0.65"/>
	<stop  offset="0.9951" style="stop-color:#FFFFFF;stop-opacity:0"/>
</linearGradient>
<rect fill="url(#SVGID_1_)" width="800" height="437"/>
<g opacity="0.5">
	<path id="moto_1_" opacity="0.5" fill="#FFFFFF" d="M101.7,64.7c-3.9,0-7.4,1.3-10.2,3.6l-2.8-2.8c3.5-2.9,8.1-4.7,13-4.7
		c1.1,0,2.1,0.1,3.1,0.3h1.9c0,0,0,0,0,0c0,0,0,0,0,0c1,0,1.8-0.7,1.9-1.7c0-0.1,0-0.2,0-0.3c0-0.1,0-0.2,0-0.3v-0.9v-3.8
		c0-3.7-3.1-6.8-6.8-6.8H69.8c0-5.4-4.4-9.7-9.7-9.7H48.2l1.7-6H58c1.1,0,1.9-0.9,1.9-1.9c0-1.1-0.9-1.9-1.9-1.9h-9.6
		c-0.9,0-1.6,0.6-1.9,1.4l-2.5,8.7c-4.3,1-7.6,4.8-7.6,9.5v11v1c0,1,0.8,1.9,1.8,1.9c0,0,0.1,0,0.1,0c0,0,0.1,0,0.1,0h1.8
		c1.4-0.3,2.8-0.5,4.3-0.5c4.9,0,9.5,1.8,13,4.7L55,68.2c-2.8-2.2-6.4-3.6-10.2-3.6c-9.1,0-16.5,7.4-16.5,16.5
		c0,9.1,7.4,16.5,16.5,16.5s16.5-7.4,16.5-16.5c0-3.9-1.3-7.4-3.6-10.2l2.8-2.8c2.9,3.5,4.7,8.1,4.7,13c0,0.3,0,0.6,0,0.9
		c0,0,0,0.1,0,0.1c0,0,0,0,0,0.1c0,1.1,0.9,2,2.1,2h1.7h8.8h1.7h0.3v0c1-0.2,1.7-1,1.7-2c0,0,0,0,0-0.1c0,0,0-0.1,0-0.1
		c0-0.3,0-0.6,0-0.9c0-4.9,1.8-9.5,4.7-13l2.8,2.8c-2.2,2.8-3.6,6.4-3.6,10.2c0,9.1,7.4,16.5,16.5,16.5s16.5-7.4,16.5-16.5
		C118.2,72.1,110.8,64.7,101.7,64.7z M44.7,93.8c-7,0-12.6-5.7-12.6-12.6c0-7,5.7-12.6,12.6-12.6c2.8,0,5.4,0.9,7.4,2.4l-8.8,8.8
		c-0.8,0.8-0.8,2,0,2.7c0.4,0.4,0.9,0.6,1.4,0.6c0.5,0,1-0.2,1.4-0.6l8.8-8.8c1.5,2.1,2.5,4.7,2.5,7.5
		C57.4,88.2,51.7,93.8,44.7,93.8z M77.4,80.4H69C68.7,71.6,63.8,64,56.5,60c-3.5-2-7.5-3.1-11.8-3.1c-1.5,0-2.9,0.1-4.3,0.4v-9.9
		c0-3.2,2.6-5.8,5.8-5.8h13.8c3.2,0,5.8,2.6,5.8,5.8v1.9c0,1.1,0.9,1.9,1.9,1.9h34.1c1.6,0,2.9,1.3,2.9,2.9v3
		c-1-0.1-2.1-0.2-3.1-0.2C88.6,56.9,77.9,67.4,77.4,80.4z M101.7,93.8c-7,0-12.6-5.7-12.6-12.6c0-2.8,0.9-5.4,2.4-7.4l8.8,8.8
		c0.4,0.4,0.9,0.6,1.4,0.6c0.5,0,1-0.2,1.4-0.6c0.8-0.8,0.8-2,0-2.7L94.2,71c2.1-1.5,4.7-2.4,7.5-2.4c7,0,12.6,5.7,12.6,12.6
		C114.3,88.2,108.7,93.8,101.7,93.8z"/>
	<path id="camion_3_" opacity="0.5" fill="#FFFFFF" d="M224.3,191.7v24c0,2.8,2.2,5,5,5h4.9c0,5.7,4.6,10.3,10.3,10.3
		c5.7,0,10.3-4.6,10.3-10.3H284c0,5.7,4.6,10.3,10.3,10.3s10.3-4.6,10.3-10.3h4.9c2.8,0,5-2.2,5-5v-50.2c0-2.8-2.2-5-5-5h-50.2
		c-2.8,0-5,2.2-5,5v15.2h-18.9C229.2,180.7,224.3,185.6,224.3,191.7z M288,220.7c0-1.5,0.5-2.9,1.5-4c1.1-1.4,2.9-2.3,4.8-2.3
		c1.9,0,3.6,0.9,4.8,2.3c0.9,1.1,1.5,2.5,1.5,4c0,3.4-2.8,6.3-6.3,6.3C290.8,226.9,288,224.1,288,220.7z M258.2,165.5
		c0-0.6,0.4-1,1-1h50.2c0.6,0,1,0.4,1,1v50.2c0,0.6-0.4,1-1,1h-5.7c-1.6-3.7-5.2-6.3-9.4-6.3s-7.9,2.6-9.4,6.3h-26.6L258.2,165.5z
		 M238.2,220.7c0-1.5,0.5-2.9,1.5-4c1.1-1.4,2.9-2.3,4.8-2.3c1.9,0,3.6,0.9,4.8,2.3c0.9,1.1,1.5,2.5,1.5,4c0,3.4-2.8,6.3-6.3,6.3
		C241,226.9,238.2,224.1,238.2,220.7z M228.3,191.7c0-3.9,3.1-7,7-7h18.9h0v32h-0.4c-1.6-3.7-5.2-6.3-9.4-6.3
		c-4.2,0-7.9,2.6-9.4,6.3h-5.7c-0.6,0-1-0.4-1-1V191.7z"/>
	<g id="auto_1_" opacity="0.5">
		<path fill="#FFFFFF" d="M223.9,125.8h-1.4l-3.5-16.9c0-0.1,0-0.1,0-0.2c-3.5-11.7-9.4-17.4-17.9-17.4h-38.3
			c-11,0-15.3,9.3-17.9,17.4c0,0.1,0,0.1-0.1,0.2l-3.5,16.9h-1.4c-2.8,0-5,2.2-5,5v14c0,2.8,2.2,5,5,5h6.5c0,0.1,0,0.3,0,0.4v10.1
			c0,1.5,1.3,2.7,3,2.7h4c1.7,0,3-1.2,3-2.7v-10.1c0-0.1,0-0.3,0-0.4h50.8c0,0.1,0,0.3,0,0.4v10.1c0,1.5,1.3,2.7,3,2.7h4
			c1.7,0,3-1.2,3-2.7v-10.1c0-0.1,0-0.3,0-0.4h6.9c2.8,0,5-2.2,5-5v-14C228.9,128,226.7,125.8,223.9,125.8z M148.6,109.8
			c3.2-10.2,7.5-14.5,14.1-14.5H201c6.6,0,11.1,4.6,14.1,14.5l3.4,16h-73.2L148.6,109.8z M224.9,144.8c0,0.6-0.4,1-1,1h-84.1
			c-0.6,0-1-0.4-1-1v-14c0-0.6,0.4-1,1-1h84.1c0.6,0,1,0.4,1,1V144.8z"/>
		<path fill="#FFFFFF" d="M151.3,130.8c-3.9,0-7,3.1-7,7c0,3.9,3.1,7,7,7c3.9,0,7-3.1,7-7C158.3,133.9,155.2,130.8,151.3,130.8z
			 M151.3,140.8c-1.7,0-3-1.3-3-3c0-1.7,1.3-3,3-3c1.7,0,3,1.3,3,3C154.3,139.4,153,140.8,151.3,140.8z"/>
		<path fill="#FFFFFF" d="M212,130.8c-3.9,0-7,3.1-7,7c0,3.9,3.1,7,7,7c3.9,0,7-3.1,7-7C219,133.9,215.9,130.8,212,130.8z
			 M212,140.8c-1.7,0-3-1.3-3-3c0-1.7,1.3-3,3-3c1.7,0,3,1.3,3,3C215,139.4,213.7,140.8,212,140.8z"/>
		<path fill="#FFFFFF" d="M155.3,111.7c0.5,0,1-0.2,1.4-0.6l9.7-9.7c0.8-0.8,0.8-2,0-2.8c-0.8-0.8-2-0.8-2.8,0l-9.7,9.7
			c-0.8,0.8-0.8,2,0,2.8C154.3,111.5,154.8,111.7,155.3,111.7z"/>
		<path fill="#FFFFFF" d="M175.1,97.6l-23,23c-0.8,0.8-0.8,2,0,2.8c0.4,0.4,0.9,0.6,1.4,0.6c0.5,0,1-0.2,1.4-0.6l23-23
			c0.8-0.8,0.8-2,0-2.8C177.1,96.8,175.9,96.8,175.1,97.6z"/>
	</g>
	<polygon opacity="0.5" fill="#FFFFFF" points="84.6,144.6 86.5,153.1 93.1,155.6 86.5,158.2 84.6,166.7 82.6,158.2 76,155.6 
		82.6,153.1 	"/>
	<polygon opacity="0.5" fill="#FFFFFF" points="7.4,83.6 9.3,92.1 15.9,94.7 9.3,97.2 7.4,105.7 5.4,97.2 -1.2,94.7 5.4,92.1 	"/>
	<polygon opacity="0.5" fill="#FFFFFF" points="203.7,56.5 205.6,65 212.2,67.6 205.6,70.1 203.7,78.6 201.7,70.1 195.1,67.6 
		201.7,65 	"/>
	<path id="moto_2_" opacity="0.5" fill="#FFFFFF" d="M524.7,132.1c-3.9,0-7.4,1.3-10.2,3.6l-2.8-2.8c3.5-2.9,8.1-4.7,13-4.7
		c1.1,0,2.1,0.1,3.1,0.3h1.9c0,0,0,0,0,0c0,0,0,0,0,0c1,0,1.8-0.7,1.9-1.7c0-0.1,0-0.2,0-0.3c0-0.1,0-0.2,0-0.3v-0.9v-3.8
		c0-3.7-3.1-6.8-6.8-6.8h-32.1c0-5.4-4.4-9.7-9.7-9.7h-11.9l1.7-6h8.1c1.1,0,1.9-0.9,1.9-1.9c0-1.1-0.9-1.9-1.9-1.9h-9.6
		c-0.9,0-1.6,0.6-1.9,1.4l-2.5,8.7c-4.3,1-7.6,4.8-7.6,9.5v11v1c0,1,0.8,1.9,1.8,1.9c0,0,0.1,0,0.1,0c0,0,0.1,0,0.1,0h1.8
		c1.4-0.3,2.8-0.5,4.3-0.5c4.9,0,9.5,1.8,13,4.7l-2.8,2.8c-2.8-2.2-6.4-3.6-10.2-3.6c-9.1,0-16.5,7.4-16.5,16.5
		c0,9.1,7.4,16.5,16.5,16.5c9.1,0,16.5-7.4,16.5-16.5c0-3.9-1.3-7.4-3.6-10.2l2.8-2.8c2.9,3.5,4.7,8.1,4.7,13c0,0.3,0,0.6,0,0.9
		c0,0,0,0.1,0,0.1c0,0,0,0,0,0.1c0,1.1,0.9,2,2.1,2h1.7h8.8h1.7h0.3v0c1-0.2,1.7-1,1.7-2c0,0,0,0,0-0.1c0,0,0-0.1,0-0.1
		c0-0.3,0-0.6,0-0.9c0-4.9,1.8-9.5,4.7-13l2.8,2.8c-2.2,2.8-3.6,6.4-3.6,10.2c0,9.1,7.4,16.5,16.5,16.5c9.1,0,16.5-7.4,16.5-16.5
		C541.3,139.5,533.8,132.1,524.7,132.1z M467.8,161.3c-7,0-12.6-5.7-12.6-12.6c0-7,5.7-12.6,12.6-12.6c2.8,0,5.4,0.9,7.4,2.4
		l-8.8,8.8c-0.8,0.8-0.8,2,0,2.7c0.4,0.4,0.9,0.6,1.4,0.6s1-0.2,1.4-0.6l8.8-8.8c1.5,2.1,2.5,4.7,2.5,7.5
		C480.4,155.6,474.7,161.3,467.8,161.3z M500.5,147.8h-8.4c-0.3-8.8-5.3-16.4-12.5-20.4c-3.5-2-7.5-3.1-11.8-3.1
		c-1.5,0-2.9,0.1-4.3,0.4v-9.9c0-3.2,2.6-5.8,5.8-5.8h13.8c3.2,0,5.8,2.6,5.8,5.8v1.9c0,1.1,0.9,1.9,1.9,1.9H525
		c1.6,0,2.9,1.3,2.9,2.9v3c-1-0.1-2.1-0.2-3.1-0.2C511.6,124.4,500.9,134.8,500.5,147.8z M524.7,161.3c-7,0-12.6-5.7-12.6-12.6
		c0-2.8,0.9-5.4,2.4-7.4l8.8,8.8c0.4,0.4,0.9,0.6,1.4,0.6c0.5,0,1-0.2,1.4-0.6c0.8-0.8,0.8-2,0-2.7l-8.8-8.8
		c2.1-1.5,4.7-2.4,7.5-2.4c7,0,12.6,5.7,12.6,12.6C537.4,155.6,531.7,161.3,524.7,161.3z"/>
	<path id="camion_4_" opacity="0.5" fill="#FFFFFF" d="M647.3,259.2v24c0,2.8,2.2,5,5,5h4.9c0,5.7,4.6,10.3,10.3,10.3
		c5.7,0,10.3-4.6,10.3-10.3H707c0,5.7,4.6,10.3,10.3,10.3c5.7,0,10.3-4.6,10.3-10.3h4.9c2.8,0,5-2.2,5-5V233c0-2.8-2.2-5-5-5h-50.2
		c-2.8,0-5,2.2-5,5v15.2h-18.9C652.3,248.2,647.3,253.1,647.3,259.2z M711,288.2c0-1.5,0.5-2.9,1.5-4c1.1-1.4,2.9-2.3,4.8-2.3
		s3.6,0.9,4.8,2.3c0.9,1.1,1.5,2.5,1.5,4c0,3.4-2.8,6.3-6.3,6.3S711,291.6,711,288.2z M681.2,233c0-0.6,0.4-1,1-1h50.2
		c0.6,0,1,0.4,1,1v50.2c0,0.6-0.4,1-1,1h-5.7c-1.6-3.7-5.2-6.3-9.4-6.3s-7.9,2.6-9.4,6.3h-26.6L681.2,233z M661.2,288.2
		c0-1.5,0.5-2.9,1.5-4c1.1-1.4,2.9-2.3,4.8-2.3c1.9,0,3.6,0.9,4.8,2.3c0.9,1.1,1.5,2.5,1.5,4c0,3.4-2.8,6.3-6.3,6.3
		C664,294.4,661.2,291.6,661.2,288.2z M651.3,259.2c0-3.9,3.1-7,7-7h18.9h0v32h-0.4c-1.6-3.7-5.2-6.3-9.4-6.3
		c-4.2,0-7.9,2.6-9.4,6.3h-5.7c-0.6,0-1-0.4-1-1V259.2z"/>
	<path id="camion_1_" opacity="0.5" fill="#FFFFFF" d="M451.5,208.1h-18.9v-15.2c0-2.8-2.2-5-5-5h-50.2c-2.8,0-5,2.2-5,5v50.2
		c0,2.8,2.2,5,5,5h4.9c0,5.7,4.6,10.3,10.3,10.3s10.3-4.6,10.3-10.3h29.3c0,5.7,4.6,10.3,10.3,10.3s10.3-4.6,10.3-10.3h4.9
		c2.8,0,5-2.2,5-5v-24C462.5,213,457.5,208.1,451.5,208.1z M392.5,254.3c-3.4,0-6.3-2.8-6.3-6.3c0-1.5,0.5-2.9,1.5-4
		c1.1-1.4,2.9-2.3,4.8-2.3c1.9,0,3.6,0.9,4.8,2.3c0.9,1.1,1.5,2.5,1.5,4C398.8,251.5,396,254.3,392.5,254.3z M428.5,244.1H402
		c-1.6-3.7-5.2-6.3-9.4-6.3s-7.9,2.6-9.4,6.3h-5.7c-0.6,0-1-0.4-1-1v-50.2c0-0.6,0.4-1,1-1h50.2c0.6,0,1,0.4,1,1L428.5,244.1z
		 M442.3,254.3c-3.4,0-6.3-2.8-6.3-6.3c0-1.5,0.5-2.9,1.5-4c1.1-1.4,2.9-2.3,4.8-2.3c1.9,0,3.6,0.9,4.8,2.3c0.9,1.1,1.5,2.5,1.5,4
		C448.6,251.5,445.8,254.3,442.3,254.3z M458.5,243.1c0,0.6-0.4,1-1,1h-5.7c-1.6-3.7-5.2-6.3-9.4-6.3c-4.2,0-7.9,2.6-9.4,6.3h-0.4
		v-32h0h18.9c3.9,0,7,3.1,7,7V243.1z"/>
	<g id="auto_2_" opacity="0.5">
		<path fill="#FFFFFF" d="M647,193.2h-1.4l-3.5-16.9c0-0.1,0-0.1,0-0.2c-3.5-11.7-9.4-17.4-17.9-17.4h-38.3
			c-11,0-15.3,9.3-17.9,17.4c0,0.1,0,0.1-0.1,0.2l-3.5,16.9h-1.4c-2.8,0-5,2.2-5,5v14c0,2.8,2.2,5,5,5h6.5c0,0.1,0,0.3,0,0.4v10.1
			c0,1.5,1.3,2.7,3,2.7h4c1.7,0,3-1.2,3-2.7v-10.1c0-0.1,0-0.3,0-0.4h50.8c0,0.1,0,0.3,0,0.4v10.1c0,1.5,1.3,2.7,3,2.7h4
			c1.7,0,3-1.2,3-2.7v-10.1c0-0.1,0-0.3,0-0.4h6.9c2.8,0,5-2.2,5-5v-14C652,195.5,649.7,193.2,647,193.2z M571.7,177.2
			c3.2-10.2,7.5-14.5,14.1-14.5h38.3c6.6,0,11.1,4.6,14.1,14.5l3.4,16h-73.2L571.7,177.2z M648,212.2c0,0.6-0.4,1-1,1h-84.1
			c-0.6,0-1-0.4-1-1v-14c0-0.6,0.4-1,1-1H647c0.6,0,1,0.4,1,1V212.2z"/>
		<path fill="#FFFFFF" d="M574.4,198.2c-3.9,0-7,3.1-7,7c0,3.9,3.1,7,7,7c3.9,0,7-3.1,7-7C581.4,201.4,578.2,198.2,574.4,198.2z
			 M574.4,208.2c-1.7,0-3-1.3-3-3s1.3-3,3-3s3,1.3,3,3S576,208.2,574.4,208.2z"/>
		<path fill="#FFFFFF" d="M635.1,198.2c-3.9,0-7,3.1-7,7c0,3.9,3.1,7,7,7c3.9,0,7-3.1,7-7C642.1,201.4,638.9,198.2,635.1,198.2z
			 M635.1,208.2c-1.7,0-3-1.3-3-3s1.3-3,3-3s3,1.3,3,3S636.7,208.2,635.1,208.2z"/>
		<path fill="#FFFFFF" d="M578.4,179.1c0.5,0,1-0.2,1.4-0.6l9.7-9.7c0.8-0.8,0.8-2,0-2.8c-0.8-0.8-2-0.8-2.8,0l-9.7,9.7
			c-0.8,0.8-0.8,2,0,2.8C577.3,179,577.9,179.1,578.4,179.1z"/>
		<path fill="#FFFFFF" d="M598.1,165.1l-23,23c-0.8,0.8-0.8,2,0,2.8c0.4,0.4,0.9,0.6,1.4,0.6s1-0.2,1.4-0.6l23-23
			c0.8-0.8,0.8-2,0-2.8C600.2,164.3,598.9,164.3,598.1,165.1z"/>
	</g>
	<polygon opacity="0.5" fill="#FFFFFF" points="507.6,212.1 509.6,220.6 516.1,223.1 509.6,225.6 507.6,234.1 505.6,225.6 
		499.1,223.1 505.6,220.6 	"/>
	<polygon opacity="0.5" fill="#FFFFFF" points="430.4,151.1 432.4,159.6 438.9,162.1 432.4,164.7 430.4,173.2 428.4,164.7 
		421.9,162.1 428.4,159.6 	"/>
	<polygon opacity="0.5" fill="#FFFFFF" points="679.7,314.7 681.7,323.2 688.3,325.7 681.7,328.3 679.7,336.8 677.8,328.3 
		671.2,325.7 677.8,323.2 	"/>
	<polygon opacity="0.5" fill="#FFFFFF" points="626.7,124 628.7,132.5 635.2,135 628.7,137.6 626.7,146.1 624.7,137.6 618.2,135 
		624.7,132.5 	"/>
</g>
<polygon opacity="0.5" fill="#95C8EC" points="256.7,247.2 258.7,255.7 265.2,258.3 258.7,260.8 256.7,269.3 254.7,260.8 
	248.2,258.3 254.7,255.7 "/>
<radialGradient id="SVGID_2_" cx="197.0315" cy="-60.9476" r="100.1646" gradientTransform="matrix(1 0 0 0.3 0 398.9622)" gradientUnits="userSpaceOnUse">
	<stop  offset="0" style="stop-color:#000000;stop-opacity:0.4"/>
	<stop  offset="0.9326" style="stop-color:#000000;stop-opacity:2.695611e-002"/>
	<stop  offset="1" style="stop-color:#000000;stop-opacity:0"/>
</radialGradient>
<path fill="url(#SVGID_2_)" d="M291.5,426H102.6c-25,0-45.3-20.3-45.3-45.3v0c0-25,20.3-45.3,45.3-45.3h188.9
	c25,0,45.3,20.3,45.3,45.3v0C336.8,405.7,316.5,426,291.5,426z"/>
<path fill="#CC3533" d="M33.2,187.6c0,0,45.2-16,133.2-8c88.1,8,104.1-14.4,104.1-14.4s7.7-2.7,8.9,3.5c1.1,6.2,5.1,40.4-3.5,62.6
	s73.2,42.1,75.5,59.4s-62.7,120.8-177.5,105.5C59.2,380.9,73.8,261.4,73.8,261.4s-22-64-40.7-67.6S33.2,187.6,33.2,187.6z"/>
<linearGradient id="SVGID_3_" gradientUnits="userSpaceOnUse" x1="184.7324" y1="336.5861" x2="219.399" y2="249.2527">
	<stop  offset="0" style="stop-color:#000000;stop-opacity:0"/>
	<stop  offset="1" style="stop-color:#7D3334;stop-opacity:0.4"/>
</linearGradient>
<path fill="url(#SVGID_3_)" d="M97.7,263.4c0,0,33.2-29.2,100.6-38.5c67.4-9.3,31.8,3.6,31.8,3.6s-10.2,57,25.1,72.4
	s53.8,15.1,53.8,15.1s-88.8,9.4-131,30.8c-42.2,21.4-80.2-80.6-80.2-80.6V263.4z"/>
<g>
	<g>
		<path fill="#D8B092" d="M324.9,315.7c0-1.7-1.4-3.1-3.1-3.1c-0.6,0-1.1,0.2-1.6,0.4c0.3-0.5,0.4-1,0.4-1.6c0-1.7-1.4-3.1-3.1-3.1
			c-0.7,0-1.4,0.3-1.9,0.7l-0.1-0.1c0.4-0.5,0.7-1.2,0.7-1.9c0-1.7-1.4-3.1-3.1-3.1c-0.7,0-1.4,0.3-1.9,0.7l-0.1-0.1
			c0.4-0.5,0.7-1.2,0.7-1.9c0-1.7-1.4-3.1-3.1-3.1c-0.7,0-1.4,0.3-1.9,0.7l0,0c-9.8,9.8-23.6,15.6-38.7,14.9
			c-25.9-1.3-47-22.4-48.3-48.3c-0.7-14.8,4.8-28.2,14.1-38c2.7-2.3,4.4-5.7,4.4-9.5c0-6.9-5.6-12.4-12.4-12.4c-4,0-7.6,1.9-9.8,4.8
			c-13.3,13.9-21.4,32.9-21.1,53.8c0.8,40.5,33.8,73.5,74.2,74.2c21.5,0.4,40.9-8.1,55-22.2l0,0
			C324.7,317.1,324.9,316.4,324.9,315.7z"/>
		<g>
			<path fill="#263238" d="M207.6,213.4l5.4-5.1c7.2-6.8,18.5-6.6,25.4,0.6c6.8,7.2,6.6,18.5-0.6,25.4l-5.4,5.1L207.6,213.4z"/>
			
				<rect x="197.8" y="225.7" transform="matrix(-0.6908 -0.7231 0.7231 -0.6908 204.512 543.2078)" fill="#546E7A" width="41.2" height="4.4"/>
		</g>
	</g>
	<g>
		<g>
			<path fill="#37474F" d="M149.5,237.3c0-22,17.9-39.9,39.9-39.9c22,0,39.9,17.9,39.9,39.9v66.5h-79.8V237.3z"/>
			<path fill="#0277BD" d="M189.4,356.8c-22,0-39.9-17.9-39.9-39.9v-13.5h79.8v13.5C229.4,338.9,211.5,356.8,189.4,356.8z"/>
		</g>
		<path fill="#DFB28B" d="M376.1,323.4c3.7,3.4,3.9,9.1,0.6,12.8l0,0c-3.4,3.7-9.1,3.9-12.8,0.6l-78.5-71.6
			c-3.7-3.4-3.9-9.1-0.6-12.8l0,0c3.4-3.7,9.1-3.9,12.8-0.6L376.1,323.4z"/>
		<g>
			
				<rect x="297.9" y="261.9" transform="matrix(-0.4386 -0.8987 0.8987 -0.4386 200.8493 660.8729)" fill="#D09F76" width="18" height="11.5"/>
			
				<rect x="239.3" y="238.1" transform="matrix(0.4386 0.8987 -0.8987 0.4386 406.303 -58.0153)" fill="#00579B" width="20.6" height="116.3"/>
			
				<rect x="291.8" y="262.3" transform="matrix(0.4386 0.8987 -0.8987 0.4386 413.0488 -122.3989)" fill="#84D2F6" width="25.3" height="14.2"/>
		</g>
		<g>
			
				<rect x="359.2" y="316.6" transform="matrix(0.674 -0.7388 0.7388 0.674 -123.213 380.9642)" fill="#FEED57" width="21.7" height="27"/>
			
				<rect x="340.6" y="311.5" transform="matrix(-0.674 0.7388 -0.7388 -0.674 819.731 264.9861)" fill="#BFCA33" width="21.7" height="3.7"/>
			
				<rect x="342.7" y="313.6" transform="matrix(-0.674 0.7388 -0.7388 -0.674 824.8561 266.7633)" fill="#F78C1E" width="21.7" height="3.7"/>
			
				<rect x="346.8" y="315.5" transform="matrix(-0.674 0.7388 -0.7388 -0.674 834.4055 269.9695)" fill="#57A0D7" width="21.7" height="7.3"/>
		</g>
		<g>
			<g>
				<path fill="#90A4AE" d="M378,330.9c8.7-0.1,15.9,6.9,16,15.6l-31.6,0.4C362.2,338.1,369.2,331,378,330.9z"/>
				<path fill="#78909C" d="M372.5,336c0,2.7,2.3,4.9,5,4.9l0,0c2.7,0,4.9-2.3,4.9-5l-0.1-12.5c0-2.7-2.3-4.9-5-4.9l0,0
					c-2.7,0-4.9,2.3-4.9,5L372.5,336z"/>
				<path fill="#B0BEC5" d="M395.7,322.4c13.3-0.2,24.2,10.5,24.3,23.8l-48.1,0.6C371.8,333.4,382.4,322.5,395.7,322.4z"/>
				
					<rect x="362.4" y="346.5" transform="matrix(-0.9999 1.149144e-002 -1.149144e-002 -0.9999 786.4177 692.5937)" fill="#37474F" width="57.7" height="4.1"/>
			</g>
			<g>
				<path fill="#D0D8DC" d="M411.8,342.9c-1.4,0-2.5-1.1-2.5-2.5c-0.1-5.4-4.5-9.8-10-9.8c-1.4,0-2.5-1.1-2.5-2.5
					c0-1.4,1.1-2.5,2.5-2.5c8.2-0.1,15,6.5,15.1,14.7C414.3,341.8,413.2,342.9,411.8,342.9z"/>
			</g>
		</g>
		<path fill="#EBC19C" d="M407.5,339.6c5,0.1,9,4.2,8.9,9.1l0,0c-0.1,5-4.2,9-9.1,8.9L301,356.4c-5-0.1-9-4.2-8.9-9.1l0,0
			c0.1-5,4.2-9,9.1-8.9L407.5,339.6z"/>
		<g>
			
				<rect x="310.2" y="341.9" transform="matrix(1.224888e-002 -0.9999 0.9999 1.224888e-002 -32.271 662.585)" fill="#DFB28B" width="18" height="11.5"/>
			<polygon fill="#0277BD" points="313.3,358.4 313.5,337.7 189.7,336.3 189.4,356.9 			"/>
			
				<rect x="303.7" y="341" transform="matrix(-1.224885e-002 0.9999 -0.9999 -1.224885e-002 668.2899 35.9935)" fill="#B5E4FA" width="25.3" height="14.2"/>
		</g>
		<g>
			
				<rect x="396.5" y="335.2" transform="matrix(1.224888e-002 -0.9999 0.9999 1.224888e-002 53.7252 751.7115)" fill="#FFF278" width="21.7" height="27"/>
			
				<rect x="372.1" y="346.7" transform="matrix(-1.224885e-002 0.9999 -0.9999 -1.224885e-002 736.1434 -30.0535)" fill="#D4E059" width="21.7" height="3.7"/>
			
				<rect x="374.8" y="346.8" transform="matrix(-1.224885e-002 0.9999 -0.9999 -1.224885e-002 738.967 -32.7117)" fill="#FAA629" width="21.7" height="3.7"/>
			
				<rect x="380.3" y="345" transform="matrix(-1.224885e-002 0.9999 -0.9999 -1.224885e-002 744.6068 -38.1479)" fill="#70B2E2" width="21.7" height="7.3"/>
		</g>
		<g>
			<g>
				<path fill="#90A4AE" d="M415.2,347.5c0.1-8.7,7.3-15.7,16-15.6l-0.4,31.6C422.1,363.4,415.1,356.2,415.2,347.5z"/>
				<path fill="#90A4AE" d="M420.2,353c2.7,0,4.9-2.1,5-4.9l0,0c0-2.7-2.1-5-4.9-5l-12.5-0.2c-2.7,0-5,2.1-5,4.9l0,0
					c0,2.7,2.1,5,4.9,5L420.2,353z"/>
				<path fill="#D0D8DC" d="M407.2,329.5c0.2-13.3,11.1-23.9,24.3-23.8l-0.6,48.1C417.6,353.7,407,342.8,407.2,329.5z"/>
				
					<rect x="404.4" y="332.6" transform="matrix(-1.224885e-002 0.9999 -0.9999 -1.224885e-002 773.1628 -94.4187)" fill="#455B65" width="57.7" height="4.1"/>
			</g>
			<g>
				<path fill="#ECEFF0" d="M428.1,313.9c0,1.4-1.2,2.5-2.5,2.5c-5.4-0.1-9.9,4.3-10,9.7c0,1.4-1.2,2.5-2.5,2.5
					c-1.4,0-2.5-1.2-2.5-2.5c0.1-8.2,6.9-14.8,15.1-14.7C427,311.4,428.1,312.5,428.1,313.9z"/>
			</g>
		</g>
	</g>
	<g>
		<path fill="#EBC19C" d="M254.4,312.1c0-1.7-1.4-3.1-3.1-3.1c-0.6,0-1.1,0.2-1.6,0.4c0.3-0.5,0.4-1,0.4-1.6c0-1.7-1.4-3.1-3.1-3.1
			c-0.7,0-1.4,0.3-1.9,0.7l-0.1-0.1c0.4-0.5,0.7-1.2,0.7-1.9c0-1.7-1.4-3.1-3.1-3.1c-0.7,0-1.4,0.3-1.9,0.7l-0.1-0.1
			c0.4-0.5,0.7-1.2,0.7-1.9c0-1.7-1.4-3.1-3.1-3.1c-0.7,0-1.4,0.3-1.9,0.7l0,0c-9.8,9.8-23.6,15.6-38.7,14.9
			c-25.9-1.3-47-22.4-48.3-48.3c-0.7-14.8,4.8-28.2,14.1-38c2.7-2.3,4.4-5.7,4.4-9.5c0-6.9-5.6-12.4-12.4-12.4c-4,0-7.6,1.9-9.8,4.8
			c-13.3,13.9-21.4,32.9-21.1,53.8c0.8,40.5,33.8,73.5,74.2,74.2c21.5,0.4,40.9-8.1,55-22.2l0,0
			C254.1,313.4,254.4,312.8,254.4,312.1z"/>
		<g>
			<path fill="#37474F" d="M137,209.8l5.4-5.1c7.2-6.8,18.5-6.6,25.4,0.6c6.8,7.2,6.6,18.5-0.6,25.4l-5.4,5.1L137,209.8z"/>
			
				<rect x="127.2" y="222.1" transform="matrix(-0.6908 -0.7231 0.7231 -0.6908 87.7865 486.0506)" fill="#546E7A" width="41.2" height="4.4"/>
		</g>
	</g>
	<path fill="#EBC19C" d="M178.1,224.9c0,10.2,8.3,18.5,18.5,18.5l0,0c10.2,0,18.5-8.3,18.5-18.5V198c0-10.2-8.3-18.5-18.5-18.5l0,0
		c-10.2,0-18.5,8.3-18.5,18.5V224.9z"/>
	<g>
		<g>
			<circle fill="#EBC19C" cx="161.8" cy="168.7" r="8.3"/>
			<circle fill="#DFB28B" cx="161.8" cy="168.7" r="4.6"/>
		</g>
		<path fill="#EBC19C" d="M198.4,216L198.4,216c-20.2,0-36.6-16.4-36.6-36.6v-28.3c0-20.2,16.4-36.6,36.6-36.6l0,0
			c20.2,0,36.6,16.4,36.6,36.6v28.3C235.1,199.6,218.7,216,198.4,216z"/>
		<path opacity="0.1" fill="#3E2723" d="M198.6,114.4h-0.3c-22,0-36.5,18.8-36.5,35.4v29.9c0,16.5,13,36.3,36.5,36.3h0.3
			c0.1,0,0.1,0,0.2,0c0.5,0,1,0,1.5-0.1c22.3-1.2,34.8-20.1,34.8-36.3v-29.9C235.1,133.2,220.3,114.4,198.6,114.4z M235.1,177.2
			c0,4.5-3.2,8.2-7.5,9.3c-3.3-8.8-12.6-15.2-23.5-15.2c-10.9,0-20.2,6.4-23.5,15.2c-4.3-1.1-7.5-4.8-7.5-9.3v-25.8
			c0-5.3,4.5-9.6,10.1-9.6H225c5.6,0,10.1,4.3,10.1,9.6V177.2z"/>
		<circle fill="#EBC19C" cx="206.1" cy="193.8" r="16.7"/>
		<path fill="#3E2723" d="M236.2,149.8c0,1-0.8,1.8-1.8,1.8h-12.6c-1,0-1.8-0.8-1.8-1.8l0,0c0-1,0.8-1.8,1.8-1.8h12.6
			C235.4,148,236.2,148.8,236.2,149.8L236.2,149.8z"/>
		<path fill="#3E2723" d="M196.8,149.8c0,1-0.8,1.8-1.8,1.8h-12.6c-1,0-1.8-0.8-1.8-1.8l0,0c0-1,0.8-1.8,1.8-1.8H195
			C196,148,196.8,148.8,196.8,149.8L196.8,149.8z"/>
		<path fill="#263238" d="M194.9,161.2h-1.6c-1,0-1.9-0.8-1.9-1.9l0,0c0-1,0.8-1.9,1.9-1.9h1.6c1,0,1.9,0.8,1.9,1.9l0,0
			C196.8,160.3,196,161.2,194.9,161.2z"/>
		<path fill="#263238" d="M223.6,161.2H222c-1,0-1.9-0.8-1.9-1.9l0,0c0-1,0.8-1.9,1.9-1.9h1.6c1,0,1.9,0.8,1.9,1.9l0,0
			C225.5,160.3,224.7,161.2,223.6,161.2z"/>
		<path fill="#010101" d="M211.9,151.8v7.8h-7v-7.8h-31v17.4h31v-6.4h7v6.4h31v-17.4H211.9z M201.9,166.2h-25v-11.4h25V166.2z
			 M239.9,166.2h-25v-11.4h25V166.2z"/>
		<path fill="#DC9D95" d="M217.9,183.9c0,4-3.3,7.3-7.3,7.3l0,0c-4,0-7.3-3.3-7.3-7.3v-17.3c0-4,3.3-7.3,7.3-7.3l0,0
			c4,0,7.3,3.3,7.3,7.3V183.9z"/>
		<g>
			<path fill="#263238" d="M197.2,193.8c-0.3,0.9-0.4,1.9-0.4,3c0,6.4,5.2,11.6,11.6,11.6s11.6-5.2,11.6-11.6c0-1-0.1-2-0.4-3H197.2
				z"/>
			<path fill="#FFFFFF" d="M220,196.2c0-0.8-0.2-1.6-0.4-2.3h-22.4c-0.2,0.8-0.3,1.5-0.4,2.3H220z"/>
			<path fill="#F06392" d="M208.4,208.4c3.2,0,6.1-1.3,8.2-3.4c-2.1-2.1-5-3.4-8.2-3.4c-3.2,0-6.1,1.3-8.2,3.4
				C202.3,207.1,205.2,208.4,208.4,208.4z"/>
			<path fill="#EC407A" d="M208.4,208.4c3.2,0,6.1-1.3,8.2-3.4c-2.1-2.1-5-3.4-8.2-3.4c-3.2,0-6.1,1.3-8.2,3.4
				C202.3,207.1,205.2,208.4,208.4,208.4z"/>
		</g>
	</g>
</g>
<g>
	<path fill="#B4B4B4" d="M331,306.6l-100.4,20.6c-0.3,0.1-0.6,0-0.9,0l-59.2-17c-1.9-0.5-1.8-3.2,0.1-3.6l101-20.9
		c0.3-0.1,0.6,0,0.9,0l58.6,17.3C333,303.6,332.9,306.3,331,306.6z"/>
	<polygon fill="#989898" points="316.6,305.5 235.3,322.1 185.1,307.7 266.8,290.8 	"/>
	<g>
		<polygon fill="#CDCCCC" points="338.3,257.6 312.4,231.9 307.3,232.1 338.3,262.8 		"/>
		<path fill="#CDCCCC" d="M332.2,231.4l-10.8,0.3l16.9,16.8v-11.1C338.3,234,335.5,231.3,332.2,231.4z"/>
		<path fill="#CDCCCC" d="M230.2,241.2v86.1l102.6-18.1c3.2-0.6,5.5-3.3,5.5-6.6v-30.7l-40-39.6l-61.1,1.7
			C233.3,234.1,230.2,237.3,230.2,241.2z"/>
		<polygon fill="#CDCCCC" points="338.3,248.4 321.4,231.7 312.4,231.9 338.3,257.6 		"/>
		<polygon opacity="0.5" fill="#FFFFFF" points="338.3,248.4 321.4,231.7 312.4,231.9 338.3,257.6 		"/>
		<polygon fill="#CDCCCC" points="307.3,232.1 298.3,232.3 338.3,271.9 338.3,262.8 		"/>
		<polygon opacity="0.5" fill="#FFFFFF" points="307.3,232.1 298.3,232.3 338.3,271.9 338.3,262.8 		"/>
	</g>
	<g opacity="0.5">
		<g>
			<g>
				<path fill="#FFFFFF" d="M289.3,268.6c0,0.7-0.4,1.2-1,1.5v4.5c0.2,0.1,0.4,0.2,0.6,0.3l3-2.6c0-0.2-0.1-0.3-0.1-0.5
					c0-0.8,0.5-1.4,1.2-1.7c-1-0.9-2.3-1.6-3.7-1.9C289.2,268.4,289.2,268.5,289.3,268.6L289.3,268.6z"/>
			</g>
		</g>
		<g>
			<g>
				<path fill="#FFFFFF" d="M293.4,273.6c-0.3,0-0.6-0.1-0.9-0.3l-2.9,2.6c0.1,0.2,0.1,0.5,0.1,0.7l0,0.1c0,0.4-0.1,0.7-0.2,1
					l2.2,2.8c0.2-0.1,0.3-0.1,0.5-0.1c0.7,0,1.3,0.5,1.6,1.1c1.1-1.4,1.8-3.2,1.8-5.1c0-1.3-0.3-2.5-0.8-3.6
					C294.6,273.2,294,273.6,293.4,273.6z"/>
			</g>
		</g>
		<g>
			<g>
				<path fill="#FFFFFF" d="M290.5,282.1c0-0.4,0.1-0.8,0.3-1.1l-2.1-2.6c-0.3,0.2-0.8,0.4-1.2,0.4c-0.3,0-0.6-0.1-0.9-0.2l-2.4,2.4
					c0.1,0.2,0.1,0.4,0.1,0.6l0,0c0,0.7-0.4,1.3-1.1,1.6c0,0,0,0,0,0c0,0,0.1,0.1,0.1,0.1c0,0,0,0,0,0c1.2,0.7,2.6,1.1,4,1.1
					c1.3,0,2.6-0.3,3.7-0.9C290.8,283.2,290.5,282.7,290.5,282.1z"/>
			</g>
		</g>
		<g>
			<g>
				<path fill="#FFFFFF" d="M282.7,280c0.2,0,0.4,0,0.6,0.1l2.3-2.4c-0.2-0.3-0.3-0.7-0.3-1.1c0-1,0.7-1.9,1.6-2.1v-4.5
					c-0.6-0.2-1-0.8-1-1.5c0-0.1,0-0.2,0-0.3c-3.8,0.7-6.6,4-6.6,8c0,1.9,0.6,3.6,1.7,5C281.3,280.5,281.9,280,282.7,280z
					 M282.8,273.7c0.6,0,1,0.5,1,1l0,0c0,0.6-0.5,1.1-1,1.1c-0.6,0-1-0.5-1-1.1C281.8,274.1,282.2,273.7,282.8,273.7z"/>
			</g>
		</g>
	</g>
</g>
<g>
	<path fill="#FFFFFF" d="M232.2,70.1V34.6h10.9c4.7,0,8.4,1.4,11.2,4.3c2.8,2.9,4.2,6.5,4.2,11.1v4.9c0,4.5-1.4,8.2-4.2,11.1
		c-2.8,2.8-6.6,4.3-11.2,4.3H232.2z M237,38.3v28h6.1c3.3,0,5.9-1.1,7.8-3.2c1.9-2.2,2.8-4.9,2.8-8.3v-4.9c0-3.4-0.9-6.1-2.8-8.3
		c-1.9-2.2-4.5-3.2-7.8-3.2H237z"/>
	<path fill="#FFFFFF" d="M263.1,56.6c0-3.9,1.1-7.1,3.2-9.7c2.1-2.5,5-3.8,8.6-3.8c3.7,0,6.6,1.3,8.7,3.8c2.1,2.5,3.2,5.7,3.2,9.7
		v0.5c0,3.9-1.1,7.2-3.2,9.7c-2.1,2.5-5,3.8-8.6,3.8c-3.6,0-6.5-1.3-8.7-3.8s-3.2-5.7-3.2-9.7V56.6z M267.9,57.2
		c0,2.8,0.6,5.1,1.8,6.9c1.2,1.8,2.9,2.7,5.3,2.7c2.3,0,4-0.9,5.2-2.7c1.2-1.8,1.8-4.1,1.8-6.9v-0.5c0-2.8-0.6-5.1-1.8-6.9
		s-3-2.8-5.3-2.8c-2.3,0-4,0.9-5.2,2.8c-1.2,1.8-1.8,4.1-1.8,6.9V57.2z"/>
	<path fill="#FFFFFF" d="M303.4,66.8c1.6,0,3-0.5,4.2-1.5c1.2-1,1.8-2.2,1.8-3.6h4.3l0,0.1c0.1,2.3-0.9,4.3-3,6.1
		c-2.1,1.8-4.6,2.7-7.4,2.7c-3.8,0-6.8-1.3-8.8-3.8c-2-2.5-3.1-5.7-3.1-9.4v-1c0-3.8,1-6.9,3.1-9.4c2-2.5,5-3.8,8.8-3.8
		c3.1,0,5.6,0.9,7.6,2.7c2,1.8,2.9,4.1,2.8,6.7l0,0.1h-4.3c0-1.6-0.6-3-1.7-4.1c-1.1-1.1-2.6-1.7-4.3-1.7c-2.5,0-4.3,0.9-5.4,2.7
		c-1.1,1.8-1.6,4-1.6,6.7v1c0,2.7,0.5,4.9,1.6,6.7S300.9,66.8,303.4,66.8z"/>
	<path fill="#FFFFFF" d="M336,66.2c-0.8,1.4-1.9,2.5-3.2,3.3c-1.3,0.8-2.8,1.1-4.5,1.1c-2.9,0-5.1-0.9-6.7-2.8
		c-1.6-1.8-2.4-4.7-2.4-8.6V43.7h4.8v15.6c0,2.8,0.4,4.8,1.2,5.8c0.8,1.1,2.1,1.6,3.9,1.6c1.7,0,3.1-0.3,4.2-1
		c1.1-0.7,2-1.7,2.5-2.9v-19h4.8v26.4h-4.3L336,66.2z"/>
	<path fill="#FFFFFF" d="M351.9,43.7l0.3,3.5c0.9-1.3,2-2.2,3.3-2.9c1.3-0.7,2.9-1,4.6-1s3.3,0.4,4.5,1.2c1.3,0.8,2.2,2,2.8,3.7
		c0.8-1.5,1.9-2.7,3.3-3.6s3-1.3,4.8-1.3c2.7,0,4.8,0.9,6.4,2.8c1.6,1.8,2.3,4.6,2.3,8.3v15.8h-4.8V54.3c0-2.6-0.4-4.4-1.3-5.5
		c-0.9-1.1-2.2-1.6-4-1.6c-1.6,0-3,0.6-4,1.7c-1,1.1-1.6,2.6-1.8,4.3v0.2v16.8h-4.8V54.3c0-2.5-0.5-4.3-1.4-5.4
		c-0.9-1.1-2.2-1.7-4-1.7c-1.5,0-2.7,0.3-3.6,0.9c-0.9,0.6-1.7,1.4-2.2,2.5v19.6h-4.8V43.7H351.9z"/>
	<path fill="#FFFFFF" d="M402.3,70.6c-3.7,0-6.6-1.2-8.8-3.7c-2.2-2.4-3.3-5.6-3.3-9.5v-1.1c0-3.8,1.1-6.9,3.4-9.4
		c2.2-2.5,4.9-3.7,7.9-3.7c3.6,0,6.3,1.1,8.1,3.2c1.8,2.1,2.7,5,2.7,8.6v3h-17.1l-0.1,0.1c0,2.5,0.7,4.6,1.9,6.2
		c1.2,1.6,3,2.4,5.2,2.4c1.6,0,3.1-0.2,4.3-0.7s2.3-1.1,3.2-1.9l1.9,3.1c-0.9,0.9-2.2,1.7-3.7,2.3C406.3,70.3,404.5,70.6,402.3,70.6
		z M401.5,47c-1.6,0-3,0.7-4.1,2c-1.1,1.4-1.8,3.1-2.1,5.1l0,0.1h12.2v-0.6c0-1.9-0.5-3.5-1.5-4.7S403.5,47,401.5,47z"/>
	<path fill="#FFFFFF" d="M422.1,43.7l0.3,3.9c0.9-1.4,2-2.5,3.3-3.3c1.3-0.8,2.8-1.2,4.5-1.2c2.8,0,5.1,0.8,6.6,2.5
		c1.6,1.7,2.3,4.2,2.3,7.7v16.7h-4.8V53.5c0-2.3-0.5-4-1.4-5c-0.9-1-2.3-1.5-4.2-1.5c-1.4,0-2.6,0.3-3.7,1c-1.1,0.7-1.9,1.6-2.6,2.7
		v19.3h-4.8V43.7H422.1z"/>
	<path fill="#FFFFFF" d="M452.5,37.3v6.4h5v3.6h-5v16c0,1.2,0.3,2.1,0.8,2.6c0.5,0.5,1.2,0.8,2,0.8c0.3,0,0.6,0,0.9-0.1
		c0.3-0.1,0.6-0.1,0.9-0.2l0.6,3.3c-0.4,0.3-0.9,0.5-1.6,0.7c-0.7,0.2-1.4,0.3-2.1,0.3c-2,0-3.5-0.6-4.7-1.8c-1.2-1.2-1.7-3-1.7-5.6
		v-16h-4.2v-3.6h4.2v-6.4H452.5z"/>
	<path fill="#FFFFFF" d="M479.7,70.1c-0.2-0.8-0.3-1.5-0.4-2.1c-0.1-0.6-0.1-1.2-0.2-1.8c-0.9,1.3-2.1,2.3-3.5,3.2
		c-1.4,0.9-3,1.3-4.7,1.3c-2.8,0-4.8-0.7-6.3-2.1c-1.4-1.4-2.2-3.3-2.2-5.8c0-2.5,1-4.5,3.1-5.9c2-1.4,4.8-2.1,8.3-2.1h5.2V52
		c0-1.5-0.5-2.8-1.4-3.7c-0.9-0.9-2.3-1.4-4-1.4c-1.5,0-2.8,0.4-3.8,1.2c-1,0.8-1.5,1.7-1.5,2.8h-4.6l0-0.1
		c-0.1-1.9,0.8-3.7,2.7-5.3c1.9-1.6,4.4-2.4,7.4-2.4c3,0,5.4,0.8,7.2,2.3c1.8,1.5,2.7,3.7,2.7,6.6v12.7c0,0.9,0,1.9,0.1,2.7
		s0.3,1.7,0.5,2.6H479.7z M471.7,66.6c1.7,0,3.3-0.4,4.7-1.3c1.4-0.9,2.3-1.9,2.7-3.1v-4.3h-5.4c-1.9,0-3.5,0.5-4.7,1.5
		c-1.2,1-1.7,2.1-1.7,3.4c0,1.2,0.4,2.1,1.1,2.8S470.3,66.6,471.7,66.6z"/>
	<path fill="#FFFFFF" d="M497.3,37.3v6.4h5v3.6h-5v16c0,1.2,0.3,2.1,0.8,2.6c0.5,0.5,1.2,0.8,2,0.8c0.3,0,0.6,0,0.9-0.1
		c0.3-0.1,0.6-0.1,0.9-0.2l0.6,3.3c-0.4,0.3-0.9,0.5-1.6,0.7c-0.7,0.2-1.4,0.3-2.1,0.3c-2,0-3.5-0.6-4.7-1.8c-1.2-1.2-1.7-3-1.7-5.6
		v-16h-4.2v-3.6h4.2v-6.4H497.3z"/>
	<path fill="#FFFFFF" d="M513.4,36.9h-4.8V32h4.8V36.9z M513.4,70.1h-4.8V43.7h4.8V70.1z"/>
	<path fill="#FFFFFF" d="M519.7,56.6c0-3.9,1.1-7.1,3.2-9.7c2.1-2.5,5-3.8,8.6-3.8c3.7,0,6.6,1.3,8.7,3.8c2.1,2.5,3.2,5.7,3.2,9.7
		v0.5c0,3.9-1.1,7.2-3.2,9.7c-2.1,2.5-5,3.8-8.6,3.8c-3.6,0-6.5-1.3-8.7-3.8c-2.1-2.5-3.2-5.7-3.2-9.7V56.6z M524.5,57.2
		c0,2.8,0.6,5.1,1.8,6.9c1.2,1.8,2.9,2.7,5.3,2.7c2.3,0,4-0.9,5.2-2.7c1.2-1.8,1.8-4.1,1.8-6.9v-0.5c0-2.8-0.6-5.1-1.8-6.9
		c-1.2-1.8-3-2.8-5.3-2.8c-2.3,0-4,0.9-5.2,2.8c-1.2,1.8-1.8,4.1-1.8,6.9V57.2z"/>
	<path fill="#FFFFFF" d="M553.6,43.7l0.3,3.9c0.9-1.4,2-2.5,3.3-3.3c1.3-0.8,2.8-1.2,4.5-1.2c2.8,0,5.1,0.8,6.6,2.5
		c1.6,1.7,2.3,4.2,2.3,7.7v16.7h-4.8V53.5c0-2.3-0.5-4-1.4-5c-0.9-1-2.3-1.5-4.2-1.5c-1.4,0-2.6,0.3-3.7,1c-1.1,0.7-1.9,1.6-2.6,2.7
		v19.3h-4.8V43.7H553.6z"/>
</g>
</svg>
